# xmcd CD database file
#
# Track frame offsets:
#	150
#	17874
#	34088
#	48423
#	64365
#	79322
#	96218
#	114973
#	137574
#	156886
#	172174
#	188459
#	210189
#	241157
#	276364
#	293737
#	306527
#	322618
#
# Disc length: 4508 seconds
#
# Revision: 0
# Processed by: cddbd v1.5.2PL0 Copyright (c) Steve Scherf et al.
# Submitted via: CDex 1.84
#
DISCID=f7119a12
DTITLE=Gregory Porter - Liquid Spirit
DYEAR=2014
DGENRE=Jazz
TTITLE0=No Love Dying
TTITLE1=Liquid Spirit
TTITLE2=Lonesome Lover
TTITLE3=Water Under Bridges
TTITLE4=Hey Laura
TTITLE5=Musical Genocide
TTITLE6=Wolfcry
TTITLE7=Free
TTITLE8=Brown Grass
TTITLE9=Wind Song
TTITLE10=The "In" Crowd
TTITLE11=Movin'
TTITLE12=When Love Was King
TTITLE13=I Fall In Love Too Easily
TTITLE14=BONUS TRACKS:Water Under Bridges
TTITLE15=Don't Let Me Be Misunderstood
TTITLE16=Grandma's Hands
TTITLE17=Liquid Spirit (20syl Remix)
EXTD=YEAR: 2014
EXTT0=
EXTT1=
EXTT2=
EXTT3=
EXTT4=
EXTT5=
EXTT6=
EXTT7=
EXTT8=
EXTT9=
EXTT10=
EXTT11=
EXTT12=
EXTT13=
EXTT14=
EXTT15=
EXTT16=
EXTT17=
PLAYORDER=
